:version 1.10
:name ASF
:units
  mass 1
  length 1
  angle deg
:documentation
  ASF file generated by Kaydara
:root
  axis xyz
  order  tx ty tz rx ry rz
  position 0 0 0
  orientation 0 0 0
:bonedata
  begin
    id 1
    name lfemurDummy
    direction 0.61522 -0.761478 0.204097
    length 5.68318
    axis 0 -0 0 xyz
  end
  begin
    id 2
    name lfemur
    direction 0.34202 -0.939693 -5.84747e-008
    length 16.9147
    axis 0 -0 20 xyz
    dof rx ry rz
    limits( -inf , inf )
( -inf , inf )
( -inf , inf )

  end
  begin
    id 3
    name ltibia
    direction 0.34202 -0.939693 1.20839e-009
    length 18.0532
    axis 0 -0 20 xyz
    dof rz ry rx
    limits( -inf , inf )
( -inf , inf )
( -inf , inf )

  end
  begin
    id 4
    name lfoot
    direction 0.0841971 -0.23133 0.969225
    length 5.23822
    axis -90 7.62852e-016 20 xyz
    dof ry rx rz
    limits( -inf , inf )
( -inf , inf )
( -inf , inf )

  end
  begin
    id 5
    name ltoes
    direction 0 0 0
    length 0
    axis 0 0 0 xyz
    dof rz ry rx
    limits( -inf , inf )
( -inf , inf )
( -inf , inf )

  end
  begin
    id 6
    name rfemurDummy
    direction -0.625247 -0.75382 0.202044
    length 5.74091
    axis 0 -0 0 xyz
  end
  begin
    id 7
    name rfemur
    direction -0.34202 -0.939693 -1.47013e-008
    length 16.4922
    axis 0 -0 -20 xyz
    dof rx ry rz
    limits( -inf , inf )
( -inf , inf )
( -inf , inf )

  end
  begin
    id 8
    name rtibia
    direction -0.34202 -0.939693 -7.74345e-010
    length 18.2421
    axis 0 -0 -20 xyz
    dof rz ry rx
    limits( -inf , inf )
( -inf , inf )
( -inf , inf )

  end
  begin
    id 9
    name rfoot
    direction -0.124331 -0.341598 0.931586
    length 5.45787
    axis -90 -7.62852e-016 -20 xyz
    dof ry rx rz
    limits( -inf , inf )
( -inf , inf )
( -inf , inf )

  end
  begin
    id 10
    name rtoes
    direction 0 0 0
    length 0
    axis 0 0 0 xyz
    dof rz ry rx
    limits( -inf , inf )
( -inf , inf )
( -inf , inf )

  end
  begin
    id 11
    name lowerbackDummy
    direction 0 0 0
    length 0
    axis 0 -0 0 xyz
  end
  begin
    id 12
    name lowerback
    direction -0.0218484 0.994884 -0.0986304
    length 4.45607
    axis 0 -0 0 xyz
    dof rx ry rz
    limits( -inf , inf )
( -inf , inf )
( -inf , inf )

  end
  begin
    id 13
    name upperback
    direction -0.00973057 0.999717 -0.0217111
    length 4.47449
    axis 0 -0 0 xyz
    dof rx ry rz
    limits( -inf , inf )
( -inf , inf )
( -inf , inf )

  end
  begin
    id 14
    name thorax
    direction -0.000928171 0.999699 0.0245198
    length 4.50973
    axis 0 -0 0 xyz
    dof rx ry rz
    limits( -inf , inf )
( -inf , inf )
( -inf , inf )

  end
  begin
    id 15
    name rclavicle
    direction -0.9009 0.425937 -0.0834055
    length 7.28587
    axis 0 -0 0 xyz
    dof rx ry rz
    limits( -inf , inf )
( -inf , inf )
( -inf , inf )

  end
  begin
    id 16
    name rhumerus
    direction -1 -2.23604e-007 -1.42637e-007
    length 13.5704
    axis 180 30 90 xyz
    dof rx ry rz
    limits( -inf , inf )
( -inf , inf )
( -inf , inf )

  end
  begin
    id 17
    name rradius
    direction -1 5.68281e-008 -4.4952e-007
    length 8.06782
    axis 180 30 90 xyz
    dof rz ry rx
    limits( -inf , inf )
( -inf , inf )
( -inf , inf )

  end
  begin
    id 18
    name rwrist
    direction -1 1.51393e-007 1.38143e-007
    length 4.03391
    axis -90 -90 0 xyz
    dof rz rx ry
    limits( -inf , inf )
( -inf , inf )
( -inf , inf )

  end
  begin
    id 19
    name rthumb
    direction 0 0 0
    length 0
    axis 0 0 0 xyz
    dof ry rx rz
    limits( -inf , inf )
( -inf , inf )
( -inf , inf )

  end
  begin
    id 20
    name rhand
    direction -1 -3.34077e-007 -5.59631e-007
    length 1.29744
    axis -90 -90 0 xyz
    dof ry rx rz
    limits( -inf , inf )
( -inf , inf )
( -inf , inf )

  end
  begin
    id 21
    name rfingers
    direction 0 0 0
    length 0
    axis 0 0 0 xyz
    dof rz ry rx
    limits( -inf , inf )
( -inf , inf )
( -inf , inf )

  end
  begin
    id 22
    name lclavicle
    direction 0.940017 0.332249 -0.0773232
    length 8.29589
    axis 0 -0 0 xyz
    dof rx ry rz
    limits( -inf , inf )
( -inf , inf )
( -inf , inf )

  end
  begin
    id 23
    name lhumerus
    direction 1 7.41158e-008 -1.44768e-008
    length 12.0042
    axis 180 -30 -90 xyz
    dof rx ry rz
    limits( -inf , inf )
( -inf , inf )
( -inf , inf )

  end
  begin
    id 24
    name lradius
    direction 1 -1.32972e-007 3.10821e-007
    length 8.1902
    axis 180 -30 -90 xyz
    dof rz ry rx
    limits( -inf , inf )
( -inf , inf )
( -inf , inf )

  end
  begin
    id 25
    name lwrist
    direction 1 3.08957e-007 4.01394e-007
    length 4.09509
    axis -90 90 0 xyz
    dof rz rx ry
    limits( -inf , inf )
( -inf , inf )
( -inf , inf )

  end
  begin
    id 26
    name lthumb
    direction 0 0 0
    length 0
    axis 0 0 0 xyz
    dof ry rx rz
    limits( -inf , inf )
( -inf , inf )
( -inf , inf )

  end
  begin
    id 27
    name lhand
    direction 1 -1.64125e-007 -6.99514e-007
    length 1.37229
    axis -90 90 0 xyz
    dof ry rx rz
    limits( -inf , inf )
( -inf , inf )
( -inf , inf )

  end
  begin
    id 28
    name lfingers
    direction 0 0 0
    length 0
    axis 0 0 0 xyz
    dof rz ry rx
    limits( -inf , inf )
( -inf , inf )
( -inf , inf )

  end
  begin
    id 29
    name lowerneck
    direction -0.030798 0.998024 0.0547665
    length 3.93918
    axis 0 -0 0 xyz
    dof rx ry rz
    limits( -inf , inf )
( -inf , inf )
( -inf , inf )

  end
  begin
    id 30
    name upperneck
    direction 0.0531588 0.996611 -0.0627736
    length 3.95491
    axis 0 -0 0 xyz
    dof rx ry rz
    limits( -inf , inf )
( -inf , inf )
( -inf , inf )

  end
  begin
    id 31
    name head
    direction 0 0 0
    length 0
    axis 0 0 0 xyz
    dof rx ry rz
    limits( -inf , inf )
( -inf , inf )
( -inf , inf )

  end
:hierarchy
  begin
    root lfemurDummy rfemurDummy lowerbackDummy
    lfemurDummy lfemur
    lfemur ltibia
    ltibia lfoot
    lfoot ltoes
    rfemurDummy rfemur
    rfemur rtibia
    rtibia rfoot
    rfoot rtoes
    lowerbackDummy lowerback
    lowerback upperback
    upperback thorax
    thorax rclavicle lclavicle lowerneck
    rclavicle rhumerus
    rhumerus rradius
    rradius rwrist
    rwrist rthumb rhand
    rhand rfingers
    lclavicle lhumerus
    lhumerus lradius
    lradius lwrist
    lwrist lthumb lhand
    lhand lfingers
    lowerneck upperneck
    upperneck head
  end

:SAMPLES-PER-SECOND 30
:FULLY-SPECIFIED
:DEGREES
40
root  14.73026726 38.7255541 -9.365533093 -5.690002441 -78.75499725 10.05700684
lowerback  5.089320183 0.545378983 -1.597380042
upperback  3.006139994 0.6023619771 -0.683126986
thorax  0.2261050045 0.2636960149 0.166031003
lowerneck  -4.863510132 4.166240215 -3.138099909
upperneck  11.55729961 5.475110054 2.932879925
head  4.52188015 2.66666007 1.840420008
lclavicle  0 -9.442270133e-015 7.951389973e-016
lhumerus  11.76609993 -17.77470016 77.62799835
lradius  2.531543742e-031 -2.461733194e-031 135.8009949
lwrist  -1.059337512e-030 -3.531125038e-031 -1.02125001
lhand  -1.496451383e-031 -27.76390076 20.11240005
lfingers  90 7.125020027 -90
lthumb  89.89689403 5.08795885 91.16245106
rclavicle  0 -9.442270133e-015 7.951389973e-016
rhumerus  14.19050026 19.19400024 -82.58879852
rradius  -2.563974159e-031 2.427937509e-031 136.5610046
rwrist  7.062250077e-031 -3.531125038e-031 -5.561510086
rhand  -7.920061211e-032 -33.2840004 9.303460121
rfingers  -90 -7.125020027 -90
rthumb  -92.93752616 -24.25625642 -97.11982154
rfemur  -13.42739964 9.660869598 11.23810005
rtibia  -0 0 62.97710037
rfoot  -4.812330405e-032 -12.95839977 0.2167979926
rtoes  5.373923086 19.29304026 -105.8922705
lfemur  -12.57569981 6.402850151 -13.6885004
ltibia  -0 0 60.67900085
lfoot  -0 11.79660034 -22.16970062
ltoes  -4.250644065 -19.5611806 -102.515957
41
root  14.83971153 38.70800048 -9.424866654 -3.363006592 -79.23400116 8.121002197
lowerback  4.984200001 0.5884360075 -1.150269985
upperback  3.080319881 0.6797829866 -0.7238320112
thorax  0.3650349975 0.3069680035 -0.1284999996
lowerneck  -5.661849976 4.116940022 -2.921309948
upperneck  10.8263998 5.472290039 2.634239912
head  4.431570053 2.677890062 1.708529949
lclavicle  0 -9.442270133e-015 7.951389973e-016
lhumerus  11.21430016 -17.23730087 77.4910965
lradius  2.560836016e-031 -2.431247197e-031 136.4869995
lwrist  -3.531125038e-031 -3.531125038e-031 -0.7771450281
lhand  -1.496451383e-031 -27.76390076 20.11240005
lfingers  90 7.125020027 -90
lthumb  89.89689403 5.08795885 91.16245106
rclavicle  0 -9.442270133e-015 7.951389973e-016
rhumerus  14.7961998 19.62220001 -82.5089035
rradius  -2.563804744e-031 2.428116404e-031 136.5570068
rwrist  0 -1.765562519e-031 -5.503540039
rhand  -7.920061211e-032 -33.2840004 9.303460121
rfingers  -90 -7.125020027 -90
rthumb  -92.93752616 -24.25625642 -97.11982154
rfemur  -12.15470028 9.003840446 12.34230042
rtibia  -0 0 60.89860153
rfoot  -4.877493703e-032 -15.94760036 -0.1531880051
rtoes  5.373923086 19.29304026 -105.8922705
lfemur  -14.35289955 6.093369961 -12.98169994
ltibia  -0 0 61.98300171
lfoot  -0 13.30220032 -22.62140083
ltoes  -4.250644065 -19.5611806 -102.515957
42
root  14.95328888 38.68600139 -9.48002207 -1.222000122 -79.70400238 6.343994141
lowerback  4.970469952 0.6365669966 -0.7378219962
upperback  3.182280064 0.7592849731 -0.7156410217
thorax  0.4820879996 0.3508090079 -0.3540880084
lowerneck  -6.308440208 4.021430016 -3.087739944
upperneck  9.799960136 5.422830105 2.489180088
head  4.192379951 2.660680056 1.680649996
lclavicle  0 -9.442270133e-015 7.951389973e-016
lhumerus  10.72169971 -16.5760994 77.38259888
lradius  2.588839173e-031 -2.40140704e-031 137.151001
lwrist  -1.059337512e-030 -7.062250077e-031 -0.5364519954
lhand  -1.496451383e-031 -27.76390076 20.11240005
lfingers  90 7.125020027 -90
lthumb  89.89689403 5.08795885 91.16245106
rclavicle  0 -9.442270133e-015 7.951389973e-016
rhumerus  15.61419964 19.88660049 -82.03520203
rradius  -2.562320858e-031 2.429682254e-031 136.5220032
rwrist  7.062250077e-031 -1.765562519e-031 -5.698249817
rhand  -7.920061211e-032 -33.2840004 9.303460121
rfingers  -90 -7.125020027 -90
rthumb  -92.93752616 -24.25625642 -97.11982154
rfemur  -11.00599957 8.309069633 13.25440025
rtibia  -0 0 58.90499878
rfoot  -4.709368815e-032 -20.4034996 -2.90982008
rtoes  5.373923086 19.29304026 -105.8922705
lfemur  -16.01099968 5.727680206 -12.33850002
ltibia  -0 0 63.32730103
lfoot  -0 13.79450035 -22.85989952
ltoes  -4.250644065 -19.5611806 -102.515957
43
root  15.0613109 38.67844409 -9.540889019 1.395996094 -80.19719696 4.080993652
lowerback  5.103330135 0.741854012 -0.230407998
upperback  3.292200089 0.9151149988 -0.8041960001
thorax  0.5309010148 0.4352020025 -0.7371820211
lowerneck  -7.180220127 3.896399975 -2.980730057
upperneck  8.904540062 5.300660133 2.388240099
head  4.055819988 2.61748004 1.627619982
lclavicle  0 -9.442270133e-015 7.951389973e-016
lhumerus  10.30060005 -16.03479958 77.15239716
lradius  2.620133416e-031 -2.36722304e-031 137.9029999
lwrist  -1.059337512e-030 -3.531125038e-031 -0.360085994
lhand  -1.496451383e-031 -27.76390076 20.11240005
lfingers  90 7.125020027 -90
lthumb  89.89689403 5.08795885 91.16245106
rclavicle  0 -9.442270133e-015 7.951389973e-016
rhumerus  16.43580055 19.8572998 -81.59750366
rradius  -2.56104838e-031 2.431023495e-031 136.4920044
rwrist  7.062250077e-031 -1.765562519e-031 -5.826759815
rhand  -7.920061211e-032 -33.2840004 9.303460121
rfingers  -90 -7.125020027 -90
rthumb  -92.93752616 -24.25625642 -97.11982154
rfemur  -10.10299969 7.745649815 14.09669971
rtibia  -0 0 56.93759918
rfoot  -0 -22.85230064 -6.698820114
rtoes  5.373923086 19.29304026 -105.8922705
lfemur  -17.59469986 5.334340096 -11.58720016
ltibia  -0 0 64.69730377
lfoot  -0 12.67210007 -22.38260078
ltoes  -4.250644065 -19.5611806 -102.515957
44
root  15.18088814 38.64910997 -9.606000194 4.964004517 -80.64040375 0.9049987793
lowerback  5.285950184 0.7863690257 0.3406769931
upperback  3.416409969 0.9928780198 -0.8819699883
thorax  0.5697180033 0.4818759859 -1.142379999
lowerneck  -8.131660461 3.840219975 -2.641870022
upperneck  7.910630226 5.255970001 2.108119965
head  3.90895009 2.609920025 1.477779984
lclavicle  0 -9.442270133e-015 7.951389973e-016
lhumerus  9.930500031 -15.34710026 76.82009888
lradius  2.654596677e-031 -2.328510365e-031 138.7440033
lwrist  -7.062250077e-031 -0 -0.06246479973
lhand  -1.496451383e-031 -27.76390076 20.11240005
lfingers  90 7.125020027 -90
lthumb  89.89689403 5.08795885 91.16245106
rclavicle  0 -9.442270133e-015 7.951389973e-016
rhumerus  17.21380043 19.58729935 -81.21720123
rradius  -2.569010804e-031 2.422607588e-031 136.6799927
rwrist  1.412450015e-030 1.765562519e-031 -6.137430191
rhand  -7.920061211e-032 -33.2840004 9.303460121
rfingers  -90 -7.125020027 -90
rthumb  -92.93752616 -24.25625642 -97.11982154
rfemur  -9.454719543 7.464829922 14.98449993
rtibia  -0 0 55.00849915
rfoot  -0 -24.66589928 -9.052729607
rtoes  5.373923086 19.29304026 -105.8922705
lfemur  -19.30940056 4.971310139 -10.65279961
ltibia  -0 0 66.12729645
lfoot  -0 9.817469597 -21.12059975
ltoes  -4.250644065 -19.5611806 -102.515957
45
root  15.30866698 38.60199996 -9.65955539 9.089996338 -80.99759674 -2.792007446
lowerback  5.455150127 0.7563080192 0.9463989735
upperback  3.556629896 0.9742040038 -0.9070649743
thorax  0.6312569976 0.4812830091 -1.50849998
lowerneck  -8.999679565 3.857800007 -2.344229937
upperneck  6.703030109 5.304769993 1.773720026
head  3.668950081 2.642339945 1.314949989
lclavicle  0 -9.442270133e-015 7.951389973e-016
lhumerus  9.593700409 -14.59039974 76.4917984
lradius  2.686128966e-031 -2.292063528e-031 139.526001
lwrist  -7.062250077e-031 -3.531125038e-031 0.3653079867
lhand  -1.496451383e-031 -27.76390076 20.11240005
lfingers  90 7.125020027 -90
lthumb  89.89689403 5.08795885 91.16245106
rclavicle  0 -9.442270133e-015 7.951389973e-016
rhumerus  18.03009987 20.12400055 -81.14579773
rradius  -2.571124079e-031 2.420364644e-031 136.7299957
rwrist  1.412450015e-030 -0 -5.755259991
rhand  -7.920061211e-032 -33.2840004 9.303460121
rfingers  -90 -7.125020027 -90
rthumb  -92.93752616 -24.25625642 -97.11982154
rfemur  -9.06180954 7.358069897 15.87240028
rtibia  -0 0 53.23089981
rfoot  -0 -26.74720001 -10.06579971
rtoes  5.373923086 19.29304026 -105.8922705
lfemur  -21.1215992 4.586400032 -9.674530029
ltibia  -0 0 67.56159973
lfoot  -0 6.423980236 -19.30170059
ltoes  -4.250644065 -19.5611806 -102.515957
46
root  15.45537813 38.5375556 -9.71451106 12.65499878 -81.44229889 -6.059997559
lowerback  5.903439999 0.8009489775 1.283229947
upperback  3.678349972 1.04516995 -0.867438972
thorax  0.5162500143 0.5188159943 -1.666280031
lowerneck  -9.762000084 3.869820118 -2.032239914
upperneck  5.605720043 5.333469868 1.351220012
head  3.452349901 2.655560017 1.120499969
lclavicle  0 -9.442270133e-015 7.951389973e-016
lhumerus  9.142219543 -14.00150013 76.44200134
lradius  2.715625145e-031 -2.257038792e-031 140.2689972
lwrist  -7.062250077e-031 -0 0.7405980229
lhand  -1.496451383e-031 -27.76390076 20.11240005
lfingers  90 7.125020027 -90
lthumb  89.89689403 5.08795885 91.16245106
rclavicle  0 -9.442270133e-015 7.951389973e-016
rhumerus  18.84359932 20.45899963 -80.71759796
rradius  -2.575386571e-031 2.415828646e-031 136.8309937
rwrist  0 -0 -5.678589821
rhand  -7.920061211e-032 -33.2840004 9.303460121
rfingers  -90 -7.125020027 -90
rthumb  -92.93752616 -24.25625642 -97.11982154
rfemur  -8.793049812 7.511240005 16.53050041
rtibia  -0 0 51.6969986
rfoot  -0 -28.68959999 -10.32789993
rtoes  5.373923086 19.29304026 -105.8922705
lfemur  -22.67029953 4.504829884 -8.870360374
ltibia  -0 0 68.87409973
lfoot  -0 2.811840057 -17.39019966
ltoes  -4.250644065 -19.5611806 -102.515957
